<?xml version="1.0" encoding="utf-8"?>
<!-- Generator: Adobe Illustrator 22.1.0, SVG Export Plug-In . SVG Version: 6.00 Build 0)  -->
<svg version="1.1" id="Layer_1" xmlns="http://www.w3.org/2000/svg" x="0px" y="0px"
     viewBox="0 0 630 629" style="enable-background:new 0 0 630 629;" xml:space="preserve">
<style type="text/css">
	.st0{fill:#FFFFFF;}
</style>
<g transform="translate(0.000000,629.000000) scale(0.100000,-0.100000)">
	<path class="st0" d="M6180,4720c-6,755-10,816-46,897c-8,17-14,38-14,46c0,9-3,17-7,19c-5,2-21,28-36,59s-40,72-54,90
		c-45,58-203,209-219,209c-7,0-14,4-14,8c0,5-18,17-40,28c-22,10-40,22-40,26s-16,10-35,14c-19,3-35,10-35,15c0,4-20,11-45,15
		c-25,3-48,10-51,15s-23,9-44,9s-42,5-45,10c-9,14-4601,14-4610,0c-3-5-24-10-45-10s-41-4-44-9s-26-12-51-15c-25-4-45-11-45-15
		c0-5-16-12-35-15c-19-4-35-10-35-14s-18-16-40-26c-22-11-40-23-40-28c0-4-7-8-14-8c-16,0-174-151-219-209c-14-18-39-59-54-90
		s-31-57-35-59c-5-2-8-11-8-20s-6-29-14-44c-8-14-17-50-21-80c-4-29-11-61-16-70c-12-23-13-4602-1-4625c6-10,13-46,17-80
		c4-35,11-63,16-63s12-18,15-40c4-22,9-40,13-40c3,0,15-19,26-43c11-23,22-44,25-47s14-18,24-35c28-42,34-50,107-123
		c73-74,102-98,137-115c12-5,22-14,22-18s14-10,30-14s30-11,30-16s7-9,15-9s15-4,15-9s18-12,40-16s40-10,40-14c0-5,33-14,73-21
		c106-20,4648-20,4755,0c39,7,72,16,72,21c0,4,18,10,40,14s40,11,40,16s7,9,15,9s15,4,15,9s14,12,30,16c17,4,30,10,30,14
		s10,13,23,18c34,17,63,41,136,115c73,73,79,81,107,123c10,17,21,32,24,35s14,24,25,47c11,24,23,43,26,43c4,0,9,18,13,40
		c3,22,10,40,15,40c4,0,14,33,21,73c10,56,15,398,19,1532 M2477,4332c103-59,245-141,315-182c70-40,125-77,123-81c-3-4-51-33-107-65
		c-150-84-138-64-138-230v-142l-196,114c-107,63-199,114-203,114c-5,0-53-26-107-58c-55-33-180-105-279-162s-192-112-208-122l-27-20
		l2-356l3-357l130-77c72-42,157-92,190-111s111-64,173-101c63-36,118-66,122-66c5,0,92,48,192,106c101,58,238,138,306,177l122,71
		v506v506l128,74c434,251,581,336,781,451l224,129l146-83c195-111,639-369,829-480l152-90v-653v-654l-22-13c-13-8-158-92-323-187
		s-320-185-345-200s-133-78-241-139l-196-111l-224,128c-320,184-424,244-427,247c-1,1,53,34,120,73l123,70l3,146c1,88,6,146,12,146
		s27-11,48-23c58-37,340-197,347-197c3,0,63,33,133,73c70,41,204,118,297,172c94,54,176,102,183,108c9,7,12,88,10,365l-3,354
		l-145,85c-80,47-219,128-310,180l-165,95l-50-28c-108-60-551-317-562-326c-10-8-13-128-15-515l-3-505l-130-76
		c-71-41-204-118-295-170c-91-53-193-112-226-131c-34-20-154-89-267-154l-206-118l-43,24c-24,14-142,82-263,152s-292,169-380,220
		c-308,178-410,238-427,253c-17,14-18,58-18,663v648l88,49c48,28,141,81,207,119c138,81,255,148,480,278c88,51,203,118,255,148
		c52,31,100,54,107,52S2374,4392,2477,4332z"/>
</g>
</svg>
